<?xml version="1.0" encoding="utf-8"?>
<svg id="Layer_1" xmlns="http://www.w3.org/2000/svg" x="0px" y="0px"
	 width="1024px" height="1024px" viewBox="0 0 1024 1024">
<style type="text/css">
	.st0{fill:#FFFFFF;}
	.st1{fill:url(#SVGID_1_);}
	.st2{fill:url(#SVGID_00000102502962099162039050000001056177889609328806_);}
	.st3{fill:url(#SVGID_00000016790614658901295320000004704665014677046425_);}
	.st4{fill:url(#SVGID_00000129182789975975418440000009947088571988400052_);}
	.st5{fill:url(#SVGID_00000150786908357381639780000003290472486853426576_);}
	.st6{fill:url(#SVGID_00000134223837976913446490000004843559143649093791_);}
	.st7{fill:url(#SVGID_00000145759343584473508510000010658994837753254839_);}
	.st8{fill:#15104B;}
	.st9{fill:url(#SVGID_00000132796877412977949670000013663252040468417411_);}
	.st10{fill:url(#SVGID_00000023961805167102402730000013252702880636168089_);}
	.st11{fill:url(#SVGID_00000090995994807389215550000001489480499098221211_);}
	.st12{fill:url(#SVGID_00000023282156967345266440000001452674500599935641_);}
	.st13{fill:url(#SVGID_00000152224562679404861520000012621002079440338873_);}
	.st14{fill:url(#SVGID_00000095302487562627960100000014363112499252659899_);}
	.st15{fill:url(#SVGID_00000087413701023842489560000007608568817316242332_);}
	.st16{fill:url(#SVGID_00000101093582698935916050000004538426789310406785_);}
	.st17{fill:url(#SVGID_00000015328096388547722600000003168594715409378227_);}
	.st18{fill:url(#SVGID_00000038403547525321490170000004191142967058567589_);}
	.st19{fill:url(#SVGID_00000039134564781227037010000005432390304070603199_);}
	.st20{fill:url(#SVGID_00000087393597005128318990000009058671465406917054_);}
	.st21{fill:url(#SVGID_00000111901793219655428400000016903722465625336496_);}
	.st22{fill:url(#SVGID_00000049183825573694104390000007377307552519669901_);}
	.st23{fill:url(#SVGID_00000149347672229165209830000013707724858286608769_);}
	.st24{fill:url(#SVGID_00000013186582277406272250000003857887544067688333_);}
	.st25{fill:url(#SVGID_00000182530035117783365880000006889589068290475933_);}
	.st26{fill:url(#SVGID_00000078748806182764701350000001121090938836290714_);}
	.st27{fill:url(#SVGID_00000160149019845084894690000002721770275022961325_);}
	.st28{fill:url(#SVGID_00000007418512363658296860000004031172451736160187_);}
	.st29{fill:url(#SVGID_00000130636383828128417850000014115391017681087126_);}
</style>
<g>
	<rect class="st0" width="1024" height="1024"/>
	<g>
		<g>
			<linearGradient id="SVGID_1_" gradientUnits="userSpaceOnUse" x1="380.0627" y1="671.1212" x2="841.4875" y2="205.9601">
				<stop  offset="0" style="stop-color:#265CFE"/>
				<stop  offset="1" style="stop-color:#21E3FF"/>
			</linearGradient>
			<path class="st1" d="M732.5,232.4v46.3c0,25.8-21,46.8-46.8,46.8s-46.8-21-46.8-46.8v-57.6h-22.4v57.6c0,25.8-21,46.8-46.8,46.8
				s-46.8-21-46.8-46.8v-57.6h-22.4v57.6c0,25.8-21,46.8-46.8,46.8c-25.8,0-46.8-21-46.8-46.8v-57.6h-20v57.6
				c0,25.8-21,46.8-46.8,46.8c-25.8,0-46.8-21-46.8-46.8v-46.9c-57.4,22.6-98.1,78.5-98.1,143.9v32c0,0,147.8,272.7,461.7,447.4
				h17.7c85.4,0,154.6-69.2,154.6-154.6V375.7C829,310.9,789.1,255.4,732.5,232.4z"/>

				<linearGradient id="SVGID_00000054240294541648468020000002699392144757642652_" gradientUnits="userSpaceOnUse" x1="144.4437" y1="437.3947" x2="605.8686" y2="-27.7663">
				<stop  offset="0" style="stop-color:#265CFE"/>
				<stop  offset="1" style="stop-color:#21E3FF"/>
			</linearGradient>
			<path style="fill:url(#SVGID_00000054240294541648468020000002699392144757642652_);" d="M339.9,311.8L339.9,311.8
				c18.3,0,33.1-14.8,33.1-33.1V202c0-18.3-14.8-33.1-33.1-33.1h0c-18.3,0-33.1,14.8-33.1,33.1v76.7
				C306.8,297,321.6,311.8,339.9,311.8z"/>

				<linearGradient id="SVGID_00000035520075407726431860000006626191763924726678_" gradientUnits="userSpaceOnUse" x1="201.7239" y1="494.2148" x2="663.1487" y2="29.0537">
				<stop  offset="0" style="stop-color:#265CFE"/>
				<stop  offset="1" style="stop-color:#21E3FF"/>
			</linearGradient>
			<path style="fill:url(#SVGID_00000035520075407726431860000006626191763924726678_);" d="M453.6,311.8L453.6,311.8
				c18.3,0,33.1-14.8,33.1-33.1V202c0-18.3-14.8-33.1-33.1-33.1h0c-18.3,0-33.1,14.8-33.1,33.1v76.7
				C420.4,297,435.3,311.8,453.6,311.8z"/>

				<linearGradient id="SVGID_00000116928357838663179510000008900767507505253273_" gradientUnits="userSpaceOnUse" x1="260.2202" y1="552.2413" x2="721.645" y2="87.0802">
				<stop  offset="0" style="stop-color:#265CFE"/>
				<stop  offset="1" style="stop-color:#21E3FF"/>
			</linearGradient>
			<path style="fill:url(#SVGID_00000116928357838663179510000008900767507505253273_);" d="M569.6,311.8L569.6,311.8
				c18.3,0,33.1-14.8,33.1-33.1V202c0-18.3-14.8-33.1-33.1-33.1h0c-18.3,0-33.1,14.8-33.1,33.1v76.7
				C536.5,297,551.3,311.8,569.6,311.8z"/>

				<linearGradient id="SVGID_00000029741240300295699480000001419824458556055997_" gradientUnits="userSpaceOnUse" x1="318.7165" y1="610.2678" x2="780.1414" y2="145.1067">
				<stop  offset="0" style="stop-color:#265CFE"/>
				<stop  offset="1" style="stop-color:#21E3FF"/>
			</linearGradient>
			<path style="fill:url(#SVGID_00000029741240300295699480000001419824458556055997_);" d="M685.7,311.8
				c18.3,0,33.1-14.8,33.1-33.1V202c0-18.3-14.8-33.1-33.1-33.1c-18.3,0-33.1,14.8-33.1,33.1v76.7
				C652.6,297,667.4,311.8,685.7,311.8z"/>
		</g>

			<linearGradient id="SVGID_00000018956728978983587540000011751241635062737574_" gradientUnits="userSpaceOnUse" x1="171.9365" y1="422.2127" x2="560.0378" y2="885.9727">
			<stop  offset="0" style="stop-color:#25A0FD"/>
			<stop  offset="0.2016" style="stop-color:#258FFD"/>
			<stop  offset="0.7256" style="stop-color:#2769FD"/>
			<stop  offset="1" style="stop-color:#275AFD"/>
		</linearGradient>
		<path style="fill:url(#SVGID_00000018956728978983587540000011751241635062737574_);" d="M656.7,855.1H482.2
			C195.7,715.4,195,487.9,195,485.7c0,0,0,0,0,0v-78C195,407.7,342.8,680.4,656.7,855.1z"/>

			<linearGradient id="SVGID_00000034798892969842405990000006031367462644550292_" gradientUnits="userSpaceOnUse" x1="201.1983" y1="807.8287" x2="298.1718" y2="710.8552">
			<stop  offset="0" style="stop-color:#5D7FFF"/>
			<stop  offset="1" style="stop-color:#5587F8"/>
		</linearGradient>
		<path style="fill:url(#SVGID_00000034798892969842405990000006031367462644550292_);" d="M482.2,855.1H349.6
			c-85.4,0-154.6-69.2-154.6-154.6V485.7C195,487.9,195.7,715.4,482.2,855.1z"/>
		<g>
			<path class="st0" d="M497.3,421.2h-59.5c-4.5,0-8.1,3.6-8.1,8.1v85.5H329.2c-3.8,0-6.8,3-6.8,6.8v14.9c0,3.8,3,6.8,6.8,6.8h100.4
				v95.8c0,4.5,3.6,8.1,8.1,8.1h59.5c4.5,0,8.1-3.6,8.1-8.1V429.3C505.3,424.9,501.7,421.2,497.3,421.2z"/>
			<path class="st0" d="M715,514.9H614.6v-85.5c0-4.5-3.6-8.1-8.1-8.1H547c-4.5,0-8.1,3.6-8.1,8.1v209.9c0,4.5,3.6,8.1,8.1,8.1h59.5
				c4.5,0,8.1-3.6,8.1-8.1v-95.8H715c3.8,0,6.8-3,6.8-6.8v-14.9C721.8,517.9,718.8,514.9,715,514.9z"/>
		</g>
	</g>
</g>
</svg>
